<svg id="Capa_1" enable-background="new 0 0 512 512" height="512" viewBox="0 0 512 512" width="512" xmlns="http://www.w3.org/2000/svg"><g><g><g><g><path d="m476.788 437.638h-441.576v-263.795c0-11.774 9.545-21.319 21.319-21.319h398.938c11.774 0 21.319 9.545 21.319 21.319z" fill="#f4fbff"/><path d="m76.42 424.592v-216.709c0-7.816 6.336-14.152 14.152-14.152h330.857c7.816 0 14.152 6.336 14.152 14.152v216.709z" fill="#cbe2ff"/><path d="m451.397 446.937v-22.344h-438.606c-7.064-.001-12.791 5.726-12.791 12.79 0 25.374 20.569 45.943 45.943 45.943h369.064c20.098.001 36.39-16.292 36.39-36.389z" fill="#d8e2f1"/><g fill="#b9cbea"><path d="m499.209 424.592h-52.447v22.344c0 20.098-16.292 36.39-36.39 36.39h55.685c25.374 0 45.943-20.569 45.943-45.943 0-7.064-5.727-12.791-12.791-12.791z"/><path d="m177.989 424.592c0 16.219 13.148 29.367 29.367 29.367h97.288c16.219 0 29.367-13.148 29.367-29.367z"/></g></g><g><g><g><g><path d="m342.698 42.348c0-7.552-6.122-13.674-13.674-13.675h-203.931c-7.552 0-13.675 6.122-13.675 13.675v382.244h231.28z" fill="#f4fbff"/><path d="m386.907 28.673h-64.845c7.552 0 13.675 6.122 13.675 13.675v382.244h64.844v-382.244c.001-7.552-6.122-13.675-13.674-13.675z" fill="#e4f6ff"/><path d="m342.698 42.348c0-7.552-6.122-13.674-13.674-13.675h-203.931c-7.552 0-13.675 6.122-13.675 13.675v37.397h231.28z" fill="#ffe07d"/><path d="m386.907 28.673h-64.845c7.552 0 13.675 6.122 13.675 13.675v37.397h64.844v-37.397c.001-7.552-6.122-13.675-13.674-13.675z" fill="#ffd064"/></g><g fill="#f4fbff"><circle cx="321.053" cy="54.209" r="7.6"/><circle cx="351.494" cy="54.209" r="7.6"/></g></g><g><g><path d="m250.032 256.354h-82.431c-8.923 0-16.157-7.234-16.157-16.157v-102.213c0-8.923 7.234-16.157 16.157-16.157h82.431c8.923 0 16.157 7.234 16.157 16.157v102.214c0 8.923-7.234 16.156-16.157 16.156z" fill="#bed8fb"/><path d="m208.816 204.745c-26.131 0-48.374 16.625-56.745 39.872 1.924 6.772 8.141 11.737 15.529 11.737h82.431c7.389 0 13.605-4.965 15.529-11.737-8.37-23.247-30.613-39.872-56.744-39.872z" fill="#407093"/><circle cx="208.816" cy="185.073" fill="#365e7d" r="25.735"/></g><g><g><path d="m360.556 310.234h-209.112c-4.268 0-7.726-3.459-7.726-7.726s3.459-7.726 7.726-7.726h209.113c4.268 0 7.726 3.459 7.726 7.726s-3.459 7.726-7.727 7.726z" fill="#407093"/></g><g><path d="m360.556 348.417h-209.112c-4.268 0-7.726-3.459-7.726-7.726s3.459-7.726 7.726-7.726h209.113c4.268 0 7.726 3.459 7.726 7.726s-3.459 7.726-7.727 7.726z" fill="#407093"/></g><g><path d="m360.556 386.601h-209.112c-4.268 0-7.726-3.459-7.726-7.726s3.459-7.726 7.726-7.726h209.113c4.268 0 7.726 3.459 7.726 7.726s-3.459 7.726-7.727 7.726z" fill="#407093"/></g></g><g><g><path d="m360.556 216.708h-54.052c-4.268 0-7.726-3.459-7.726-7.726s3.459-7.726 7.726-7.726h54.052c4.268 0 7.726 3.459 7.726 7.726s-3.458 7.726-7.726 7.726z" fill="#407093"/></g><g><path d="m360.556 176.927h-54.052c-4.268 0-7.726-3.459-7.726-7.726s3.459-7.726 7.726-7.726h54.052c4.268 0 7.726 3.459 7.726 7.726s-3.458 7.726-7.726 7.726z" fill="#407093"/></g></g></g></g></g></g></g></g></svg>